# xmcd
#
# Track frame offsets: 
#        150
#        20232
#        42543
#        59559
#        77800
#        93590
#        109708
#        128585
#        147768
#        162095
#        180019
#        194588
#        211094
#        229919
#        241844
#        256370
#
# Disc length: 3808 seconds
#
# Revision: 0
# Processed by: cddbd v1.5.2PL0 Copyright (c) Steve Scherf et al.
# Submitted via: ExactAudioCopyFreeDBPlugin 1.0
#
DISCID=d90ede10
DTITLE=Hue and Cry - A's and B's - CD1
DYEAR=2012
DGENRE=Pop
TTITLE0=Labour Of Love
TTITLE1=Headin' For A Fall
TTITLE2=Wide Screen
TTITLE3=Violently
TTITLE4=Calamity John
TTITLE5=I Refuse
TTITLE6=Ordinary Angel
TTITLE7=Hymn To Hands
TTITLE8=I Am John's Heart
TTITLE9=Joe And Josephine
TTITLE10=The Man With The Child In His Eyes
TTITLE11=Rolling Home
TTITLE12=Peaceful Face
TTITLE13=Mother Glasgow (Live)
TTITLE14=A Change Is Gonna Come (Live)
TTITLE15=Labout Of Love (Joey Negro Extended 12")
EXTD=
EXTT0=
EXTT1=
EXTT2=
EXTT3=
EXTT4=
EXTT5=
EXTT6=
EXTT7=
EXTT8=
EXTT9=
EXTT10=
EXTT11=
EXTT12=
EXTT13=
EXTT14=
EXTT15=
PLAYORDER=
